# xmcd
#
# Track frame offsets:
#	150
#	12249
#	22902
#	33251
#	44059
#	57516
#	69589
#	77840
#	83874
#	96106
# Disc length: 1470 seconds
# Revision: 2
# Processed by: cddbd v1.5.1PL0 Copyright (c) Steve Scherf et al.
#
# Submitted via: libkcddb 0.10
#
DISCID=7a05bc0a
DTITLE=Mariide Widmann - Right Wing Radical Hippie
DYEAR=1900
DGENRE=Unknown
TTITLE0=The Barn
TTITLE1=Bownwinder Boogie
TTITLE2=Wake Up Call
TTITLE3=Too Simple
TTITLE4=Newspeak History
TTITLE5=Led Poisoning Waltz
TTITLE6=New World Order Hymn
TTITLE7=Patriot Song
TTITLE8=Roger Sherman Memorial Money Rap
TTITLE9=May the Circle
EXTD=
EXTT0=
EXTT1=
EXTT2=
EXTT3=
EXTT4=
EXTT5=
EXTT6=
EXTT7=
EXTT8=
EXTT9=
PLAYORDER=
